<svg width="44" height="36" viewBox="0 0 44 36" fill="none" xmlns="http://www.w3.org/2000/svg">
<path opacity="0.5" d="M12.528 0C5.184 5.184 0 13.68 0 23.04C0 30.672 4.608 35.136 9.936 35.136C14.976 35.136 18.72 31.104 18.72 26.352C18.72 21.6 15.408 18.144 11.088 18.144C10.224 18.144 9.072 18.288 8.784 18.432C9.504 13.536 14.112 7.776 18.72 4.896L12.528 0ZM37.296 0C30.096 5.184 24.912 13.68 24.912 23.04C24.912 30.672 29.52 35.136 34.848 35.136C39.744 35.136 43.632 31.104 43.632 26.352C43.632 21.6 40.176 18.144 35.856 18.144C34.992 18.144 33.984 18.288 33.696 18.432C34.416 13.536 38.88 7.776 43.488 4.896L37.296 0Z" fill="black"/>
</svg>
